<svg width="28" height="28" viewBox="0 0 28 28" fill="none" xmlns="http://www.w3.org/2000/svg">
<path d="M24.9481 21.9054C24.2722 21.2664 23.6144 20.6091 22.9754 19.9342C22.4386 19.3958 22.1154 19.0042 22.1154 19.0042L18.0749 17.1C19.6925 15.2892 20.5853 12.9582 20.5858 10.5442C20.5858 5.04801 16.0547 0.574463 10.4846 0.574463C4.91445 0.574463 0.383331 5.04801 0.383331 10.5442C0.383331 16.0403 4.91445 20.5139 10.4846 20.5139C13.0286 20.5139 15.3476 19.5739 17.1268 18.0371L19.0562 22.025C19.0562 22.025 19.453 22.344 19.9985 22.8738C20.5569 23.3909 21.2914 24.0902 21.9956 24.8208L23.9553 26.8033L24.8268 27.7234L27.8875 24.7026L26.9553 23.8423C26.4084 23.3125 25.6782 22.6089 24.9481 21.9054V21.9054ZM10.4846 17.6654C6.50611 17.6654 3.26939 14.4708 3.26939 10.5442C3.26939 6.61753 6.50611 3.42295 10.4846 3.42295C14.463 3.42295 17.6997 6.61753 17.6997 10.5442C17.6997 14.4708 14.463 17.6654 10.4846 17.6654Z" fill="#FF8243"/>
</svg>
